<mxfile host="app.diagrams.net" modified="2023-04-24T06:53:59.156Z" agent="Mozilla/5.0 (X11; Linux x86_64) AppleWebKit/537.36 (KHTML, like Gecko) Chrome/111.0.0.0 Safari/537.36" etag="mRzz71mByfZG_pUiFGkH" version="21.1.7" type="github">
  <diagram id="prtHgNgQTEPvFCAcTncT" name="Page-1">
    <mxGraphModel dx="1004" dy="586" grid="1" gridSize="10" guides="1" tooltips="1" connect="1" arrows="1" fold="1" page="1" pageScale="1" pageWidth="827" pageHeight="1169" math="0" shadow="0">
      <root>
        <mxCell id="0" />
        <mxCell id="1" parent="0" />
        <mxCell id="8ey2Dtkb3_u_YUsl2DYu-52" value="" style="edgeStyle=orthogonalEdgeStyle;rounded=0;orthogonalLoop=1;jettySize=auto;html=1;" edge="1" parent="1" target="8ey2Dtkb3_u_YUsl2DYu-7">
          <mxGeometry relative="1" as="geometry">
            <mxPoint x="190" y="275" as="sourcePoint" />
          </mxGeometry>
        </mxCell>
        <mxCell id="8ey2Dtkb3_u_YUsl2DYu-1" value="牙医诊所管理系统" style="rounded=0;whiteSpace=wrap;html=1;" vertex="1" parent="1">
          <mxGeometry x="190" y="220" width="120" height="110" as="geometry" />
        </mxCell>
        <mxCell id="8ey2Dtkb3_u_YUsl2DYu-2" value="医生" style="rounded=0;whiteSpace=wrap;html=1;" vertex="1" parent="1">
          <mxGeometry x="80" y="300" width="60" height="30" as="geometry" />
        </mxCell>
        <mxCell id="8ey2Dtkb3_u_YUsl2DYu-6" value="患者" style="rounded=0;whiteSpace=wrap;html=1;" vertex="1" parent="1">
          <mxGeometry x="80" y="220" width="60" height="30" as="geometry" />
        </mxCell>
        <mxCell id="8ey2Dtkb3_u_YUsl2DYu-7" value="老板" style="rounded=0;whiteSpace=wrap;html=1;" vertex="1" parent="1">
          <mxGeometry x="80" y="260" width="60" height="30" as="geometry" />
        </mxCell>
        <mxCell id="8ey2Dtkb3_u_YUsl2DYu-17" value="保险公司" style="rounded=0;whiteSpace=wrap;html=1;" vertex="1" parent="1">
          <mxGeometry x="355" y="260" width="60" height="30" as="geometry" />
        </mxCell>
        <mxCell id="8ey2Dtkb3_u_YUsl2DYu-27" value="设备管理系统" style="rounded=0;whiteSpace=wrap;html=1;" vertex="1" parent="1">
          <mxGeometry x="220" y="370" width="60" height="30" as="geometry" />
        </mxCell>
        <mxCell id="8ey2Dtkb3_u_YUsl2DYu-35" value="" style="rounded=0;whiteSpace=wrap;html=1;fillColor=#ABABAB;strokeColor=#36393d;" vertex="1" parent="1">
          <mxGeometry x="185" y="222.5" width="10" height="25" as="geometry" />
        </mxCell>
        <mxCell id="8ey2Dtkb3_u_YUsl2DYu-36" value="" style="rounded=0;whiteSpace=wrap;html=1;fillColor=#ABABAB;strokeColor=#36393d;" vertex="1" parent="1">
          <mxGeometry x="185" y="262.5" width="10" height="25" as="geometry" />
        </mxCell>
        <mxCell id="8ey2Dtkb3_u_YUsl2DYu-37" value="" style="rounded=0;whiteSpace=wrap;html=1;fillColor=#ABABAB;strokeColor=#36393d;" vertex="1" parent="1">
          <mxGeometry x="185" y="302.5" width="10" height="25" as="geometry" />
        </mxCell>
        <mxCell id="8ey2Dtkb3_u_YUsl2DYu-38" value="" style="rounded=0;whiteSpace=wrap;html=1;fillColor=#ABABAB;strokeColor=#36393d;" vertex="1" parent="1">
          <mxGeometry x="305" y="262.5" width="10" height="25" as="geometry" />
        </mxCell>
        <mxCell id="8ey2Dtkb3_u_YUsl2DYu-42" value="" style="rounded=0;whiteSpace=wrap;html=1;fillColor=#ABABAB;strokeColor=#36393d;" vertex="1" parent="1">
          <mxGeometry x="230" y="325" width="40" height="11" as="geometry" />
        </mxCell>
        <mxCell id="8ey2Dtkb3_u_YUsl2DYu-44" value="" style="endArrow=classic;startArrow=classic;html=1;rounded=0;entryX=0;entryY=0.5;entryDx=0;entryDy=0;exitX=1;exitY=0.5;exitDx=0;exitDy=0;" edge="1" parent="1" source="8ey2Dtkb3_u_YUsl2DYu-6" target="8ey2Dtkb3_u_YUsl2DYu-35">
          <mxGeometry width="50" height="50" relative="1" as="geometry">
            <mxPoint x="140" y="240" as="sourcePoint" />
            <mxPoint x="190" y="190" as="targetPoint" />
          </mxGeometry>
        </mxCell>
        <mxCell id="8ey2Dtkb3_u_YUsl2DYu-45" value="" style="endArrow=classic;startArrow=classic;html=1;rounded=0;entryX=0;entryY=0.5;entryDx=0;entryDy=0;exitX=1;exitY=0.5;exitDx=0;exitDy=0;" edge="1" parent="1" source="8ey2Dtkb3_u_YUsl2DYu-7" target="8ey2Dtkb3_u_YUsl2DYu-36">
          <mxGeometry width="50" height="50" relative="1" as="geometry">
            <mxPoint x="140" y="274" as="sourcePoint" />
            <mxPoint x="180" y="274" as="targetPoint" />
          </mxGeometry>
        </mxCell>
        <mxCell id="8ey2Dtkb3_u_YUsl2DYu-46" value="" style="endArrow=classic;startArrow=classic;html=1;rounded=0;entryX=0;entryY=0.5;entryDx=0;entryDy=0;exitX=1;exitY=0.5;exitDx=0;exitDy=0;" edge="1" parent="1" source="8ey2Dtkb3_u_YUsl2DYu-2" target="8ey2Dtkb3_u_YUsl2DYu-37">
          <mxGeometry width="50" height="50" relative="1" as="geometry">
            <mxPoint x="160" y="241" as="sourcePoint" />
            <mxPoint x="200" y="241" as="targetPoint" />
          </mxGeometry>
        </mxCell>
        <mxCell id="8ey2Dtkb3_u_YUsl2DYu-50" value="" style="endArrow=classic;startArrow=classic;html=1;rounded=0;exitX=0.5;exitY=0;exitDx=0;exitDy=0;entryX=0.5;entryY=1;entryDx=0;entryDy=0;" edge="1" parent="1" source="8ey2Dtkb3_u_YUsl2DYu-27" target="8ey2Dtkb3_u_YUsl2DYu-42">
          <mxGeometry width="50" height="50" relative="1" as="geometry">
            <mxPoint x="250" y="390" as="sourcePoint" />
            <mxPoint x="250" y="370" as="targetPoint" />
          </mxGeometry>
        </mxCell>
        <mxCell id="8ey2Dtkb3_u_YUsl2DYu-53" value="" style="endArrow=classic;startArrow=classic;html=1;rounded=0;entryX=0;entryY=0.5;entryDx=0;entryDy=0;exitX=1;exitY=0.5;exitDx=0;exitDy=0;" edge="1" parent="1" source="8ey2Dtkb3_u_YUsl2DYu-38" target="8ey2Dtkb3_u_YUsl2DYu-17">
          <mxGeometry width="50" height="50" relative="1" as="geometry">
            <mxPoint x="324" y="250" as="sourcePoint" />
            <mxPoint x="-56" y="285" as="targetPoint" />
          </mxGeometry>
        </mxCell>
      </root>
    </mxGraphModel>
  </diagram>
</mxfile>
